<svg width="24" height="24" viewBox="0 0 24 24" fill="none" xmlns="http://www.w3.org/2000/svg">
<path d="M23.7037 14.5185V12.1481C23.7037 11.1537 23.7037 10.2699 23.6884 9.48145H0.015289C1.34662e-07 10.2699 0 11.1537 0 12.1481V14.5185C0 18.9881 1.41285e-07 21.223 1.38853 22.6114C2.77707 24 5.01186 24 9.48148 24H14.2222C18.6918 24 20.9267 24 22.3151 22.6114C23.7037 21.223 23.7037 18.9881 23.7037 14.5185Z" fill="currentColor"/>
<path d="M6.81487 0.888889C6.81487 0.397973 6.4169 0 5.92598 0C5.43507 0 5.03709 0.397973 5.03709 0.888889V2.7606C3.33122 2.8972 2.21134 3.23244 1.38858 4.05519C0.565828 4.87795 0.230587 5.99783 0.0939941 7.7037H23.6098C23.4732 5.99783 23.138 4.87795 22.3152 4.05519C21.4924 3.23244 20.3726 2.8972 18.6667 2.7606V0.888889C18.6667 0.397973 18.2687 0 17.7778 0C17.2869 0 16.8889 0.397973 16.8889 0.888889V2.68196C16.1004 2.66667 15.2166 2.66667 14.2223 2.66667H9.48154C8.48713 2.66667 7.60334 2.66667 6.81487 2.68196V0.888889Z" fill="currentColor"/>
</svg>
