<svg width="24" height="22" viewBox="0 0 24 22" fill="none" xmlns="http://www.w3.org/2000/svg">
<path fill-rule="evenodd" clip-rule="evenodd" d="M3.50711 0C2.16697 0 1.08057 1.09441 1.08057 2.44444V7.49061C0.332167 7.8263 -0.137248 8.65382 0.0359586 9.52624L2.12231 20.0349C2.34916 21.1776 3.34506 22 4.50174 22H19.4983C20.6549 22 21.6508 21.1776 21.8776 20.0349L23.9641 9.52624C24.1372 8.65382 23.6678 7.82634 22.9194 7.49063V5.5C22.9194 4.14997 21.8331 3.05556 20.4929 3.05556H12.5831L10.8851 0.917412C10.4247 0.337553 9.72743 0 8.99034 0H3.50711ZM20.4929 7.33333V5.5H12.5831C11.846 5.5 11.1488 5.16245 10.6883 4.58259L8.99034 2.44444H3.50711V7.33333H20.4929Z" fill="currentColor"/>
</svg>
