<svg width="133" height="79" viewBox="0 0 133 79" fill="none" xmlns="http://www.w3.org/2000/svg">
<g clip-path="url(#clip0_1324_1300)">
<path d="M10.926 77.871H9.334L8.034 74.429H2.826L1.602 77.871H0L4.71 65.592H6.2L10.926 77.871ZM7.561 73.136L5.635 67.905C5.54935 67.6368 5.48646 67.3618 5.447 67.083H5.412C5.3708 67.3626 5.30385 67.6377 5.212 67.905L3.306 73.136H7.561ZM23.195 77.357C22.1401 77.8692 20.976 78.1161 19.804 78.076C19.0241 78.1109 18.2457 77.9785 17.5213 77.6875C16.7968 77.3965 16.1431 76.9537 15.604 76.389C14.5204 75.176 13.9547 73.5869 14.028 71.962C13.99 71.0902 14.1272 70.2197 14.4316 69.4019C14.7359 68.5842 15.2013 67.8357 15.8 67.201C16.3829 66.6026 17.0841 66.1322 17.8589 65.8197C18.6337 65.5072 19.465 65.3595 20.3 65.386C21.2891 65.3539 22.2742 65.5258 23.194 65.891V67.424C22.3039 66.9304 21.3007 66.6768 20.283 66.688C19.6436 66.6642 19.0065 66.778 18.4149 67.0218C17.8233 67.2656 17.291 67.6336 16.854 68.101C15.942 69.1411 15.4707 70.4954 15.54 71.877C15.4728 73.1826 15.9132 74.4637 16.769 75.452C17.1788 75.8931 17.679 76.2404 18.2355 76.4703C18.7919 76.7002 19.3914 76.8072 19.993 76.784C21.1153 76.8123 22.2233 76.5277 23.193 75.962L23.195 77.357ZM36.157 77.357C35.1021 77.8692 33.938 78.1161 32.766 78.076C31.9861 78.1109 31.2077 77.9785 30.4833 77.6875C29.7588 77.3965 29.1051 76.9537 28.566 76.389C27.4824 75.176 26.9167 73.5869 26.99 71.962C26.952 71.0902 27.0892 70.2197 27.3936 69.4019C27.6979 68.5842 28.1633 67.8357 28.762 67.201C29.3449 66.6026 30.0461 66.1322 30.8209 65.8197C31.5957 65.5072 32.427 65.3595 33.262 65.386C34.2511 65.3539 35.2362 65.5258 36.156 65.891V67.424C35.2659 66.9304 34.2627 66.6768 33.245 66.688C32.6056 66.6642 31.9685 66.778 31.3769 67.0218C30.7853 67.2656 30.253 67.6336 29.816 68.101C28.904 69.1411 28.4327 70.4954 28.502 71.877C28.4348 73.1826 28.8752 74.4637 29.731 75.452C30.1408 75.8931 30.641 76.2404 31.1974 76.4703C31.7539 76.7002 32.3534 76.8072 32.955 76.784C34.0773 76.8123 35.1853 76.5277 36.155 75.962L36.157 77.357ZM45.711 78.076C44.9307 78.1093 44.1525 77.9727 43.4302 77.6755C42.708 77.3784 42.0589 76.9278 41.528 76.355C40.4484 75.1196 39.8858 73.5161 39.957 71.877C39.8683 70.155 40.4407 68.4641 41.557 67.15C42.1118 66.5573 42.7891 66.0925 43.5416 65.7878C44.2942 65.4832 45.1041 65.3461 45.915 65.386C46.6819 65.3556 47.4462 65.4932 48.1544 65.7891C48.8627 66.085 49.4976 66.532 50.015 67.099C51.0864 68.3381 51.6425 69.9406 51.569 71.577C51.6635 73.3068 51.0929 75.0073 49.974 76.33C49.4325 76.9127 48.7707 77.3707 48.0347 77.6724C47.2986 77.9741 46.5057 78.1111 45.711 78.076ZM45.811 66.688C45.2155 66.6698 44.6237 66.7863 44.0795 67.0287C43.5353 67.2711 43.0528 67.6332 42.668 68.088C41.828 69.1193 41.3982 70.4244 41.461 71.753C41.3968 73.0729 41.8152 74.371 42.638 75.405C43.011 75.8536 43.4814 76.2113 44.0133 76.4509C44.5453 76.6906 45.1248 76.8058 45.708 76.788C46.3034 76.8173 46.8979 76.7142 47.4486 76.4861C47.9994 76.2581 48.4927 75.9107 48.893 75.469C49.7277 74.424 50.1441 73.1059 50.061 71.771C50.1474 70.423 49.7463 69.0889 48.931 68.012C48.5453 67.5699 48.0643 67.2211 47.5242 66.9919C46.984 66.7627 46.399 66.6591 45.813 66.689L45.811 66.688ZM65.067 72.905C65.067 76.353 63.5113 78.077 60.4 78.077C57.42 78.077 55.93 76.4187 55.93 73.102V65.592H57.374V73.007C57.374 75.5243 58.4357 76.783 60.559 76.783C62.6083 76.783 63.633 75.567 63.633 73.135V65.591H65.072L65.067 72.905ZM80.137 77.871H78.374L72.054 68.084C71.8958 67.8417 71.7637 67.5832 71.66 67.313H71.609C71.6683 67.8736 71.69 68.4375 71.674 69.001V77.871H70.239V65.593H72.106L78.254 75.226C78.5107 75.626 78.6773 75.9 78.754 76.048H78.788C78.7174 75.4484 78.6886 74.8446 78.702 74.241V65.593H80.141L80.137 77.871ZM92.723 66.894H89.174V77.871H87.739V66.894H84.203V65.594H92.723V66.894ZM106.258 77.871H104.665L103.365 74.429H98.158L96.933 77.871H95.333L100.042 65.592H101.532L106.258 77.871ZM102.893 73.136L100.966 67.904C100.88 67.6358 100.817 67.3608 100.778 67.082H100.744C100.703 67.3616 100.636 67.6367 100.544 67.904L98.635 73.136H102.893ZM120.068 77.871H118.304L111.985 68.084C111.827 67.8417 111.695 67.5832 111.591 67.313H111.54C111.6 67.8732 111.623 68.4368 111.608 69V77.871H110.174V65.593H112.041L118.189 75.226C118.446 75.626 118.612 75.9 118.689 76.048H118.723C118.652 75.4484 118.624 74.8446 118.637 74.241V65.593H120.076L120.068 77.871ZM132.653 66.894H129.108V77.871H127.674V66.894H124.138V65.594H132.658L132.653 66.894Z" fill="#FFB341"/>
<path d="M132.653 1.045C132.26 1.08833 131.802 1.12166 131.279 1.145C130.457 1.20118 129.638 1.29931 128.826 1.439C127.803 1.57811 126.828 1.95895 125.981 2.55C125.029 3.34834 124.306 4.38587 123.887 5.55599L121.923 10.585L108.775 47.895H102.037L88.692 10.454L86.664 5.354C86.2063 4.26116 85.5635 3.25542 84.764 2.381C84.035 1.74189 83.1146 1.36274 82.147 1.30299L79.465 1.04199V-0.00300598H109.723V1.04199L106.848 1.30299C106.06 1.43333 105.284 1.63004 104.529 1.891C103.941 2.109 103.647 2.78399 103.647 3.91599C103.778 5.30292 104.097 6.66566 104.594 7.967C105.225 9.88366 106.173 12.5503 107.436 15.967C108.699 19.3837 110.594 24.4257 113.12 31.093C114.645 26.9983 116.191 22.7623 117.759 18.385C119.327 14.0077 120.394 10.8497 120.959 8.911C121.427 7.50512 121.713 6.04477 121.808 4.56599C121.853 4.15059 121.807 3.73027 121.671 3.33497C121.536 2.93967 121.315 2.57911 121.024 2.27899C120.495 1.84051 119.867 1.53775 119.195 1.397C118.518 1.24727 117.83 1.1599 117.137 1.13599C116.462 1.11399 115.841 1.08066 115.275 1.036V-0.00900269H132.653V1.045Z" fill="#1A2C5E"/>
<path d="M71.144 0H69.458V48.055H71.144V0Z" fill="#FFB341"/>
<path d="M58.869 1.467C58.303 1.51034 57.6823 1.554 57.007 1.598C56.3317 1.642 55.3843 1.76167 54.165 1.957C53.08 2.07838 52.0844 2.61614 51.388 3.457C50.6981 4.42444 50.3013 5.57007 50.245 6.757L50.114 9.893V48.05H42.143L11.107 8.328H10.846V38.841L10.975 41.977C11.0043 43.1278 11.38 44.243 12.053 45.177C12.7548 45.9338 13.7075 46.4099 14.734 46.517C15.7504 46.6921 16.7756 46.8119 17.805 46.876C18.6543 46.9193 19.2313 46.963 19.536 47.007V48.052H0.657V47.007C1.22767 46.9637 1.86367 46.92 2.565 46.876C3.26633 46.832 4.50533 46.6687 6.282 46.386C8.05867 46.1027 9.07867 44.6327 9.342 41.976L9.475 38.841V9.112L9.343 6.106C8.76393 5.18056 8.07935 4.3255 7.303 3.558C6.57846 2.81473 5.68715 2.25492 4.703 1.925C3.82257 1.63057 2.90132 1.47635 1.973 1.468H0V0.422997H24.993L48.481 30.477H48.742V9.634L48.611 6.498C48.5709 5.35868 48.196 4.25644 47.533 3.329C46.8513 2.55979 45.9085 2.0709 44.887 1.957C43.711 1.761 42.7637 1.64133 42.045 1.598C41.3263 1.55467 40.662 1.511 40.052 1.467V0.421997H58.869V1.467Z" fill="#1A2C5E"/>
</g>
<defs>
<clipPath id="clip0_1324_1300">
<rect width="132.653" height="78.077" fill="white"/>
</clipPath>
</defs>
</svg>
