<svg width="23" height="19" viewBox="0 0 23 19" fill="none" xmlns="http://www.w3.org/2000/svg">
<g clip-path="url(#clip0_1330_1303)">
<path d="M20.7 0H2.3C1.69208 0.00317178 1.11015 0.246892 0.681406 0.677882C0.252665 1.10887 0.0119918 1.69208 0.0120001 2.3L0 16.1C0.00184637 16.7094 0.24476 17.2934 0.675694 17.7243C1.10663 18.1552 1.69057 18.3982 2.3 18.4H20.7C21.3094 18.3982 21.8934 18.1552 22.3243 17.7243C22.7552 17.2934 22.9982 16.7094 23 16.1V2.3C22.9982 1.69057 22.7552 1.10663 22.3243 0.675694C21.8934 0.24476 21.3094 0.00184637 20.7 0ZM20.7 4.6L11.5 10.35L2.3 4.6V2.3L11.5 8.05L20.7 2.3V4.6Z" fill="#4767B9"/>
</g>
<defs>
<clipPath id="clip0_1330_1303">
<rect width="23" height="18.4" fill="white"/>
</clipPath>
</defs>
</svg>
