<svg width="16" height="22" viewBox="0 0 16 22" fill="none" xmlns="http://www.w3.org/2000/svg">
<g clip-path="url(#clip0_1330_1305)">
<path d="M7.179 20.907C1.124 12.129 0 11.228 0 8C0 5.87827 0.842855 3.84344 2.34315 2.34315C3.84344 0.842855 5.87827 0 8 0C10.1217 0 12.1566 0.842855 13.6569 2.34315C15.1571 3.84344 16 5.87827 16 8C16 11.226 14.876 12.127 8.821 20.906C8.729 21.039 8.6061 21.1478 8.46285 21.2229C8.31959 21.298 8.16025 21.3372 7.9985 21.3372C7.83675 21.3372 7.67741 21.298 7.53415 21.2229C7.3909 21.1478 7.268 21.039 7.176 20.906L7.179 20.907ZM8 11.336C8.6594 11.3364 9.30411 11.1412 9.85261 10.7752C10.4011 10.4092 10.8287 9.88877 11.0814 9.27971C11.3342 8.67066 11.4006 8.00034 11.2723 7.35353C11.1441 6.70672 10.8269 6.11247 10.3609 5.64592C9.89492 5.17937 9.30105 4.86148 8.65439 4.73245C8.00774 4.60342 7.33734 4.66904 6.72798 4.92102C6.11862 5.173 5.59766 5.60001 5.23099 6.14807C4.86432 6.69612 4.6684 7.3406 4.668 8C4.66774 8.43783 4.75371 8.87142 4.92102 9.27602C5.08833 9.68062 5.33369 10.0483 5.64309 10.3581C5.9525 10.6679 6.31989 10.9137 6.72429 11.0814C7.12868 11.2492 7.56217 11.3357 8 11.336Z" fill="#4767B9"/>
</g>
<defs>
<clipPath id="clip0_1330_1305">
<rect width="16.003" height="21.338" fill="white"/>
</clipPath>
</defs>
</svg>
