<svg width="23" height="23" viewBox="0 0 23 23" fill="none" xmlns="http://www.w3.org/2000/svg">
<g clip-path="url(#clip0_1330_1301)">
<path d="M22.344 16.253L17.313 14.1C17.098 14.0083 16.8591 13.989 16.6322 14.0449C16.4053 14.1008 16.2028 14.229 16.055 14.41L13.827 17.132C10.33 15.4832 7.51576 12.669 5.867 9.17199L8.589 6.94099C8.77062 6.79367 8.89924 6.59114 8.95536 6.36412C9.01149 6.1371 8.99205 5.89797 8.9 5.68299L6.743 0.651995C6.64193 0.420287 6.46313 0.231141 6.23747 0.117214C6.01181 0.00328743 5.75345 -0.0282685 5.507 0.0279947L0.836 1.10599C0.598466 1.16072 0.386488 1.29432 0.234658 1.48502C0.0828286 1.67572 0.000109905 1.91224 9.59781e-08 2.15599C-0.000262593 4.89334 0.538704 7.60393 1.58612 10.133C2.63354 12.662 4.16888 14.9599 6.10448 16.8955C8.04008 18.8311 10.338 20.3665 12.867 21.4139C15.3961 22.4613 18.1067 23.0003 20.844 23C21.0879 23.0001 21.3247 22.9175 21.5156 22.7656C21.7065 22.6138 21.8402 22.4017 21.895 22.164L22.973 17.492C23.0287 17.2444 22.9964 16.9851 22.8816 16.7588C22.7668 16.5325 22.5767 16.3543 22.344 16.253Z" fill="#4767B9"/>
</g>
<defs>
<clipPath id="clip0_1330_1301">
<rect width="23" height="23" fill="white"/>
</clipPath>
</defs>
</svg>
