<svg width="35" height="33" viewBox="0 0 35 33" fill="none" xmlns="http://www.w3.org/2000/svg">
<path d="M31.4286 30.7143V5.71429C31.4286 5.31986 31.1088 5 30.7143 5H25.7143C25.3198 5 25 5.31986 25 5.71429V30.7143H24.2857V12.1429C24.2857 11.7484 23.9659 11.4286 23.5714 11.4286H18.5714C18.1769 11.4286 17.8571 11.7484 17.8571 12.1429V30.7143H17.1429V16.4286C17.1429 16.0341 16.8231 15.7143 16.4286 15.7143H11.4286C11.0341 15.7143 10.7143 16.0341 10.7143 16.4286V30.7143H10V21.4286C10 21.0341 9.68021 20.7143 9.28571 20.7143H4.28571C3.89121 20.7143 3.57143 21.0341 3.57143 21.4286V30.7143H0V32.1429H35V30.7143H31.4286ZM8.57143 30.7143H5V25.3571H8.57143V30.7143ZM8.57143 23.9286H5V22.1429H8.57143V23.9286ZM15.7143 30.7143H12.1429V20.3571H15.7143V30.7143ZM15.7143 18.9286H12.1429V17.1429H15.7143V18.9286ZM22.8571 30.7143H19.2857V16.0714H22.8571V30.7143ZM22.8571 14.6429H19.2857V12.8571H22.8571V14.6429ZM30 30.7143H26.4286V9.64286H30V30.7143ZM30 8.21429H26.4286V6.42857H30V8.21429Z" fill="#021137"/>
<path d="M4.07656 18.7194L20.3571 2.43879V5H21.7857V0.714286C21.7857 0.319857 21.4659 0 21.0714 0H16.4286V1.42857H19.3469L3.06635 17.7092L4.07656 18.7194Z" fill="#021137"/>
</svg>
