<svg width="29" height="35" viewBox="0 0 29 35" fill="none" xmlns="http://www.w3.org/2000/svg">
<path d="M5.8 1.94445C3.66451 1.94445 1.93334 3.68555 1.93334 5.83333V29.1667C1.93334 31.3144 3.66449 33.0555 5.8 33.0555H23.2C25.3355 33.0555 27.0667 31.3144 27.0667 29.1667V5.83333C27.0667 3.68557 25.3355 1.94445 23.2 1.94445H5.8ZM5.8 0H23.2C26.4032 0 29 2.61167 29 5.83333V29.1667C29 32.3883 26.4032 35 23.2 35H5.8C2.59675 35 0 32.3883 0 29.1667V5.83333C0 2.61167 2.59675 0 5.8 0ZM7.73334 5.83333C6.6656 5.83333 5.8 6.70389 5.8 7.77778V9.72222C5.8 10.7961 6.66558 11.6667 7.73334 11.6667H21.2667C22.3344 11.6667 23.2 10.7961 23.2 9.72222V7.77778C23.2 6.7039 22.3344 5.83333 21.2667 5.83333H7.73334ZM7.73334 3.88888H21.2667C23.4022 3.88888 25.1333 5.63 25.1333 7.77778V9.72222C25.1333 11.87 23.4022 13.6111 21.2667 13.6111H7.73334C5.59783 13.6111 3.86666 11.87 3.86666 9.72222V7.77778C3.86666 5.63 5.59783 3.88888 7.73334 3.88888ZM5.8 15.5555H7.73334C8.80108 15.5555 9.66666 16.4261 9.66666 17.5C9.66666 18.5739 8.80108 19.4444 7.73334 19.4444H5.8C4.73226 19.4444 3.86666 18.5739 3.86666 17.5C3.86666 16.4261 4.73226 15.5555 5.8 15.5555ZM13.5333 15.5555H15.4667C16.5344 15.5555 17.4 16.4261 17.4 17.5C17.4 18.5739 16.5344 19.4444 15.4667 19.4444H13.5333C12.4656 19.4444 11.6 18.5739 11.6 17.5C11.6 16.4261 12.4656 15.5555 13.5333 15.5555ZM21.2667 15.5555H23.2C24.2677 15.5555 25.1333 16.4261 25.1333 17.5C25.1333 18.5739 24.2677 19.4444 23.2 19.4444H21.2667C20.1989 19.4444 19.3333 18.5739 19.3333 17.5C19.3333 16.4261 20.1989 15.5555 21.2667 15.5555ZM5.8 21.3889H7.73334C8.80108 21.3889 9.66666 22.2595 9.66666 23.3333C9.66666 24.4072 8.80108 25.2778 7.73334 25.2778H5.8C4.73226 25.2778 3.86666 24.4072 3.86666 23.3333C3.86666 22.2595 4.73226 21.3889 5.8 21.3889ZM13.5333 21.3889H15.4667C16.5344 21.3889 17.4 22.2595 17.4 23.3333C17.4 24.4072 16.5344 25.2778 15.4667 25.2778H13.5333C12.4656 25.2778 11.6 24.4072 11.6 23.3333C11.6 22.2595 12.4656 21.3889 13.5333 21.3889ZM21.2667 21.3889H23.2C24.2677 21.3889 25.1333 22.2595 25.1333 23.3333C25.1333 24.4072 24.2677 25.2778 23.2 25.2778H21.2667C20.1989 25.2778 19.3333 24.4072 19.3333 23.3333C19.3333 22.2595 20.1989 21.3889 21.2667 21.3889ZM5.8 27.2222H7.73334C8.80108 27.2222 9.66666 28.0928 9.66666 29.1667C9.66666 30.2405 8.80108 31.1111 7.73334 31.1111H5.8C4.73226 31.1111 3.86666 30.2405 3.86666 29.1667C3.86666 28.0928 4.73226 27.2222 5.8 27.2222ZM13.5333 27.2222H15.4667C16.5344 27.2222 17.4 28.0928 17.4 29.1667C17.4 30.2405 16.5344 31.1111 15.4667 31.1111H13.5333C12.4656 31.1111 11.6 30.2405 11.6 29.1667C11.6 28.0928 12.4656 27.2222 13.5333 27.2222ZM21.2667 27.2222H23.2C24.2677 27.2222 25.1333 28.0928 25.1333 29.1667C25.1333 30.2405 24.2677 31.1111 23.2 31.1111H21.2667C20.1989 31.1111 19.3333 30.2405 19.3333 29.1667C19.3333 28.0928 20.1989 27.2222 21.2667 27.2222Z" fill="#021137"/>
</svg>
