<svg width="32" height="35" viewBox="0 0 32 35" fill="none" xmlns="http://www.w3.org/2000/svg">
<path d="M22.7161 14.4276C22.9233 14.2054 23.036 13.9114 23.0307 13.6076C23.0253 13.3038 22.9022 13.014 22.6874 12.7992C22.4726 12.5844 22.1828 12.4613 21.879 12.4559C21.5752 12.4506 21.2812 12.5633 21.0589 12.7704L14.0706 19.7588L10.9907 16.6789C10.7684 16.4718 10.4744 16.3591 10.1706 16.3644C9.86686 16.3698 9.57703 16.4928 9.3622 16.7077C9.14737 16.9225 9.02431 17.2123 9.01895 17.5161C9.01359 17.8199 9.12635 18.1139 9.33347 18.3361L13.242 22.2446C13.4618 22.4642 13.7598 22.5876 14.0706 22.5876C14.3813 22.5876 14.6793 22.4642 14.8992 22.2446L22.7161 14.4276Z" fill="#021137"/>
<path fill-rule="evenodd" clip-rule="evenodd" d="M16.4782 0.133511C15.9295 -0.0445036 15.3385 -0.0445036 14.7897 0.133511L1.89171 4.3156C1.34208 4.4939 0.863004 4.84165 0.523172 5.30898C0.183341 5.77632 0.000198804 6.33926 0 6.91709V14.7716C0 24.449 5.89401 31.5078 14.6975 34.83C15.301 35.0567 15.967 35.0567 16.5704 34.83C25.3724 31.5062 31.2679 24.449 31.2679 14.7716V6.91709C31.2679 5.73047 30.5019 4.68143 29.3762 4.3156L16.4782 0.133511ZM15.5136 2.36291C15.5918 2.33758 15.6761 2.33758 15.7544 2.36291L28.6524 6.54657C28.7308 6.57194 28.7991 6.62143 28.8477 6.68797C28.8963 6.75452 28.9226 6.83471 28.9228 6.91709V14.7716C28.9228 23.3093 23.7949 29.5973 15.7434 32.635C15.6728 32.6613 15.5951 32.6613 15.5245 32.635C7.47304 29.5973 2.3451 23.3077 2.3451 14.7716V6.91709C2.3451 6.74824 2.45297 6.59972 2.61556 6.54657L15.5136 2.36291Z" fill="#021137"/>
</svg>
