<svg width="35" height="26" viewBox="0 0 35 26" fill="none" xmlns="http://www.w3.org/2000/svg">
<path d="M34.5831 9.92035L25.2042 0.410782C24.6658 -0.136927 23.7243 -0.136927 23.1859 0.410782L18.8844 4.77048C18.3331 5.33358 18.3331 6.25031 18.8867 6.81694L20.0522 7.98507C19.2974 7.92414 18.2375 8.3204 18.1389 8.31396L15.4672 7.47465L16.1136 6.8193C16.3836 6.54544 16.5329 6.18169 16.5329 5.79548C16.5329 5.40747 16.3836 5.04371 16.1141 4.77166L11.8149 0.410158C11.2742 -0.135749 10.3373 -0.135749 9.79657 0.41196L0.419387 9.91862C0.149366 10.1925 0 10.5568 0 10.9448C0 11.331 0.149366 11.6954 0.41884 11.9674L4.71689 16.3271C4.98582 16.601 5.34512 16.7518 5.72609 16.7518C6.10706 16.7518 6.46519 16.601 6.73583 16.3271L7.03101 16.0278C7.79226 17.6444 10.3496 20.9311 12.1329 22.7404L14.4779 25.1181C15.1966 25.8456 15.8773 26 16.323 26C16.8906 26 17.4237 25.7628 17.8648 25.3157C18.2965 24.8774 18.4184 24.4509 18.4458 24.1428C18.9627 24.2658 19.7385 24.2084 20.2092 23.7305C20.6409 23.294 20.7628 22.8657 20.7902 22.5576C21.3071 22.6806 22.0829 22.625 22.5536 22.1471C22.9853 21.7089 23.1072 21.2824 23.134 20.9742C23.6544 21.0901 24.4279 21.0381 24.8974 20.5619C25.2965 20.1568 25.731 19.4328 25.4155 18.4244C26.0863 17.7898 27.2186 17.0499 28.3368 16.3756C28.5982 16.6104 28.9225 16.7512 29.2742 16.7512C29.6569 16.7512 30.0157 16.6004 30.2834 16.3265L34.5827 11.9685C35.139 11.402 35.139 10.4852 34.5831 9.92035ZM5.72663 14.842L1.8842 10.9448L10.8057 1.89595L14.6481 5.79312L5.72663 14.842ZM23.7232 19.2756C23.6607 19.2756 23.5412 19.246 23.435 19.22C23.2554 19.1769 23.0523 19.1266 22.826 19.1266C22.3698 19.1266 22.0723 19.3313 21.9026 19.5028C21.5059 19.905 21.4633 20.3361 21.4377 20.5946C21.4196 20.7768 21.4179 20.7869 21.3805 20.8614C21.3181 20.8614 21.1986 20.8318 21.0924 20.8058C20.9128 20.7609 20.7097 20.7124 20.4822 20.7124C20.0243 20.7124 19.7262 20.9171 19.5577 21.0886C19.161 21.4908 19.1184 21.9219 19.0927 22.1787C19.0746 22.3608 19.0729 22.3709 19.0344 22.4454C18.972 22.4454 18.8518 22.4158 18.7457 22.3898C18.5672 22.3467 18.3648 22.2981 18.1373 22.2981C17.6793 22.2981 17.3813 22.5028 17.2144 22.6726C16.816 23.0748 16.7734 23.5059 16.7477 23.7645C16.7296 23.9466 16.7279 23.9567 16.6264 24.0608C16.4648 24.2252 16.3575 24.2252 16.3225 24.2252C16.1626 24.2252 15.9416 24.0933 15.7146 23.8632L13.3696 21.4855C11.3693 19.4562 9.09609 16.2214 8.21876 14.8226L14.0778 8.88191L15.3705 9.25155C14.2896 10.0885 13.4315 11.2874 12.7385 12.158C12.5087 12.4473 12.3266 12.6797 12.1983 12.8099C11.6512 13.3646 11.4838 13.9449 11.7007 14.5375C11.8606 14.9776 12.2094 15.3313 12.651 15.7785C13.0441 16.1771 13.5394 16.3883 14.0842 16.3883C15.1996 16.3883 16.2676 15.5307 17.3008 14.7002C17.5271 14.5186 18.2073 14.0519 18.6343 13.7616C20.3125 15.3107 21.9312 16.8283 23.0729 17.9853C24.0183 18.9415 23.7669 19.1964 23.7232 19.2756ZM24.4669 16.9121C24.4103 16.8494 24.373 16.7933 24.3112 16.7305C22.8144 15.2128 20.8613 13.588 19.6603 12.4211C19.2916 12.0627 18.6266 12.1703 18.1092 12.3317C17.5048 12.4358 16.939 12.7268 16.2151 13.3083C15.5296 13.8595 14.5917 14.6131 14.0847 14.6131C14.0165 14.6131 13.6198 14.3274 13.5445 14.2511C13.3993 14.1039 13.8257 13.6189 14.101 13.2722C15.0612 12.0663 16.3381 10.7076 18.0105 10.0559C19.4327 9.50108 20.4209 9.74 21.7293 9.7601L27.0464 15.0904C26.088 15.6801 25.1663 16.3059 24.4669 16.9121ZM29.2747 14.8379L20.3515 5.79257L24.195 1.89712L33.1178 10.9424L29.2747 14.8379Z" fill="#021137"/>
</svg>
