<svg id="Group_2" data-name="Group 2" xmlns="http://www.w3.org/2000/svg" width="75.855" height="44.647" viewBox="0 0 75.855 44.647">
  <path id="Accountant" d="M6.774-27.745H5.863l-.744-1.968H2.142l-.7,1.968H.526l2.693-7.022h.852ZM4.85-30.453l-1.1-2.992a2.865,2.865,0,0,1-.108-.47h-.02a2.623,2.623,0,0,1-.113.47L2.416-30.453Zm8.94,2.414a4.118,4.118,0,0,1-1.939.411,3.127,3.127,0,0,1-2.4-.965,3.559,3.559,0,0,1-.9-2.531,3.731,3.731,0,0,1,1.014-2.722,3.44,3.44,0,0,1,2.571-1.038,4.122,4.122,0,0,1,1.655.289v.876a3.356,3.356,0,0,0-1.665-.421,2.555,2.555,0,0,0-1.961.808,3.044,3.044,0,0,0-.752,2.159,2.9,2.9,0,0,0,.7,2.044,2.391,2.391,0,0,0,1.844.761,3.458,3.458,0,0,0,1.831-.47Zm7.412,0a4.118,4.118,0,0,1-1.939.411,3.127,3.127,0,0,1-2.4-.965,3.559,3.559,0,0,1-.9-2.531,3.731,3.731,0,0,1,1.014-2.722,3.44,3.44,0,0,1,2.571-1.038,4.122,4.122,0,0,1,1.655.289v.876a3.356,3.356,0,0,0-1.665-.421,2.555,2.555,0,0,0-1.961.808,3.044,3.044,0,0,0-.752,2.159,2.9,2.9,0,0,0,.7,2.044,2.391,2.391,0,0,0,1.844.761,3.458,3.458,0,0,0,1.831-.47Zm5.463.411a3.082,3.082,0,0,1-2.392-.984,3.65,3.65,0,0,1-.9-2.561,3.868,3.868,0,0,1,.916-2.7,3.2,3.2,0,0,1,2.492-1.009,3.013,3.013,0,0,1,2.343.979,3.664,3.664,0,0,1,.889,2.561,3.88,3.88,0,0,1-.911,2.718A3.139,3.139,0,0,1,26.665-27.627Zm.059-6.512a2.264,2.264,0,0,0-1.8.8,3.09,3.09,0,0,0-.69,2.1,3.111,3.111,0,0,0,.673,2.088,2.2,2.2,0,0,0,1.755.791,2.305,2.305,0,0,0,1.821-.754,3.082,3.082,0,0,0,.666-2.11,3.22,3.22,0,0,0-.646-2.15A2.216,2.216,0,0,0,26.724-34.14Zm11.011,3.555q0,2.957-2.669,2.957-2.556,0-2.556-2.845v-4.294h.823v4.24q0,2.159,1.821,2.159,1.758,0,1.758-2.086v-4.314h.823Zm8.617,2.84H45.343l-3.614-5.6a2.339,2.339,0,0,1-.225-.441h-.029a7.228,7.228,0,0,1,.039.965v5.073h-.823v-7.022h1.067l3.516,5.508q.22.343.284.47h.02a7.429,7.429,0,0,1-.049-1.033v-4.945h.823Zm7.2-6.277H51.521v6.277H50.7v-6.277H48.676v-.744h4.872Zm7.74,6.277h-.911l-.744-1.968H56.656l-.7,1.968H55.04l2.693-7.022h.852Zm-1.924-2.708-1.1-2.992a2.865,2.865,0,0,1-.108-.47h-.02a2.622,2.622,0,0,1-.113.47L56.93-30.453Zm9.821,2.708H68.176l-3.614-5.6a2.339,2.339,0,0,1-.225-.441h-.029a7.226,7.226,0,0,1,.039.965v5.073h-.823v-7.022h1.067l3.516,5.508q.22.343.284.47h.02a7.427,7.427,0,0,1-.049-1.033v-4.945h.823Zm7.2-6.277H74.354v6.277h-.823v-6.277H71.509v-.744h4.872Z" transform="translate(-0.526 72.274)" fill="#ffb341"/>
  <g id="Group_1" data-name="Group 1" transform="translate(0 0)">
    <path id="V" d="M27.158-112.4q-.337.037-.786.056a13.843,13.843,0,0,0-1.4.168,3.719,3.719,0,0,0-1.627.635,4,4,0,0,0-1.2,1.719l-1.122,2.877L13.5-85.608H9.651L2.02-107.017.86-109.931a5.894,5.894,0,0,0-1.085-1.7,2.5,2.5,0,0,0-1.5-.616l-1.534-.149v-.6h17.3v.6l-1.644.149a8.109,8.109,0,0,0-1.326.336q-.5.187-.5,1.158a8.814,8.814,0,0,0,.542,2.316q.542,1.644,1.625,4.577t3.251,8.649q1.308-3.512,2.653-7.267T20.47-107.9a9.869,9.869,0,0,0,.486-2.485,1.625,1.625,0,0,0-.448-1.308,2.413,2.413,0,0,0-1.046-.5,6.481,6.481,0,0,0-1.177-.149q-.579-.019-1.065-.056v-.6h9.938Z" transform="translate(48.697 112.995)" fill="#fff"/>
    <rect id="Rectangle_17" data-name="Rectangle 17" width="0.964" height="27.479" transform="translate(39.718 0)" fill="#ffb341"/>
    <path id="V-2" data-name="V" d="M32.888-112.4q-.486.037-1.065.075t-1.625.205a2.41,2.41,0,0,0-1.588.859,3.539,3.539,0,0,0-.654,1.887l-.075,1.793v21.82H23.324L5.577-108.474H5.427v17.448L5.5-89.233A3.272,3.272,0,0,0,6.118-87.4a2.435,2.435,0,0,0,1.532.766,16.317,16.317,0,0,0,1.756.205q.729.037.99.075v.6H-.4v-.6Q.09-86.393.692-86.43t2.126-.28q1.524-.243,1.75-2.522l.075-1.793v-17l-.075-1.719A8.061,8.061,0,0,0,3.4-111.2a3.733,3.733,0,0,0-1.486-.934A5.066,5.066,0,0,0,.353-112.4H-.775v-.6H13.517L26.948-95.808H27.1v-11.919l-.075-1.793a3.315,3.315,0,0,0-.616-1.812,2.373,2.373,0,0,0-1.513-.785q-1.009-.168-1.625-.205t-1.14-.075v-.6h10.76Z" transform="translate(0.775 113.236)" fill="#fff"/>
  </g>
</svg>
