<svg id="Group_2" data-name="Group 2" xmlns="http://www.w3.org/2000/svg" width="132.653" height="78.077" viewBox="0 0 132.653 78.077">
  <path id="Accountant" d="M11.452-22.4H9.86l-1.3-3.442H3.352L2.128-22.4H.526l4.71-12.279h1.49ZM8.087-27.135,6.161-32.366a5.01,5.01,0,0,1-.188-.822H5.938a4.586,4.586,0,0,1-.2.822L3.832-27.135Zm15.634,4.221a7.2,7.2,0,0,1-3.391.719,5.468,5.468,0,0,1-4.2-1.687,6.224,6.224,0,0,1-1.576-4.427,6.524,6.524,0,0,1,1.772-4.761,6.016,6.016,0,0,1,4.5-1.815,7.208,7.208,0,0,1,2.894.505v1.533a5.869,5.869,0,0,0-2.911-.736,4.467,4.467,0,0,0-3.429,1.413,5.323,5.323,0,0,0-1.314,3.776,5.064,5.064,0,0,0,1.229,3.575,4.181,4.181,0,0,0,3.224,1.332,6.048,6.048,0,0,0,3.2-.822Zm12.962,0a7.2,7.2,0,0,1-3.391.719,5.468,5.468,0,0,1-4.2-1.687,6.224,6.224,0,0,1-1.576-4.427,6.524,6.524,0,0,1,1.772-4.761,6.016,6.016,0,0,1,4.5-1.815,7.208,7.208,0,0,1,2.894.505v1.533a5.869,5.869,0,0,0-2.911-.736,4.467,4.467,0,0,0-3.429,1.413,5.323,5.323,0,0,0-1.314,3.776,5.064,5.064,0,0,0,1.229,3.575,4.181,4.181,0,0,0,3.224,1.332,6.048,6.048,0,0,0,3.2-.822Zm9.554.719a5.39,5.39,0,0,1-4.183-1.721,6.384,6.384,0,0,1-1.571-4.478,6.764,6.764,0,0,1,1.6-4.727,5.593,5.593,0,0,1,4.358-1.764,5.268,5.268,0,0,1,4.1,1.713,6.407,6.407,0,0,1,1.554,4.478A6.786,6.786,0,0,1,50.5-23.941,5.489,5.489,0,0,1,46.237-22.194Zm.1-11.388a3.959,3.959,0,0,0-3.143,1.4,5.4,5.4,0,0,0-1.207,3.665,5.441,5.441,0,0,0,1.177,3.652,3.84,3.84,0,0,0,3.07,1.383,4.031,4.031,0,0,0,3.185-1.319A5.389,5.389,0,0,0,50.587-28.5a5.631,5.631,0,0,0-1.13-3.759A3.876,3.876,0,0,0,46.339-33.582Zm19.256,6.217q0,5.172-4.667,5.172-4.47,0-4.47-4.975v-7.51H57.9v7.415q0,3.776,3.185,3.776,3.074,0,3.074-3.648v-7.544h1.439ZM80.663-22.4H78.9L72.58-32.187a4.09,4.09,0,0,1-.394-.771h-.051A12.641,12.641,0,0,1,72.2-31.27V-22.4H70.765V-34.678h1.867l6.148,9.633q.385.6.5.822h.034a12.992,12.992,0,0,1-.086-1.807v-8.648h1.439ZM93.249-33.377H89.7V-22.4H88.265V-33.377H84.729v-1.3h8.52ZM106.784-22.4h-1.593l-1.3-3.442H98.684L97.459-22.4h-1.6l4.709-12.279h1.49Zm-3.365-4.735-1.927-5.232a5.01,5.01,0,0,1-.188-.822h-.034a4.586,4.586,0,0,1-.2.822l-1.909,5.232ZM120.594-22.4H118.83l-6.319-9.787a4.091,4.091,0,0,1-.394-.771h-.051a12.636,12.636,0,0,1,.068,1.687V-22.4H110.7V-34.678h1.867l6.148,9.633q.385.6.5.822h.034a12.988,12.988,0,0,1-.086-1.807v-8.648h1.439Zm12.585-10.977h-3.545V-22.4H128.2V-33.377h-3.536v-1.3h8.52Z" transform="translate(-0.526 100.271)" fill="#ffb341"/>
  <g id="Group_1" data-name="Group 1" transform="translate(0 0)">
    <path id="V" d="M49.93-111.95q-.589.065-1.374.1a24.207,24.207,0,0,0-2.453.294,6.5,6.5,0,0,0-2.845,1.111,7,7,0,0,0-2.094,3.006L39.2-102.41,26.052-65.1H19.314L5.969-102.541l-2.028-5.1a10.307,10.307,0,0,0-1.9-2.973,4.379,4.379,0,0,0-2.617-1.078l-2.682-.261v-1.045H27v1.045l-2.875.261a14.183,14.183,0,0,0-2.319.588q-.882.327-.882,2.025a15.414,15.414,0,0,0,.947,4.051q.947,2.875,2.842,8t5.684,15.126q2.287-6.142,4.639-12.708t3.2-9.474a17.258,17.258,0,0,0,.849-4.345,2.842,2.842,0,0,0-.784-2.287,4.22,4.22,0,0,0-1.829-.882,11.334,11.334,0,0,0-2.058-.261q-1.013-.033-1.862-.1v-1.045H49.93Z" transform="translate(82.723 112.995)" fill="#fff"/>
    <rect id="Rectangle_17" data-name="Rectangle 17" width="1.686" height="48.055" transform="translate(69.458 0)" fill="#ffb341"/>
    <path id="V-2" data-name="V" d="M58.094-111.95q-.849.065-1.862.131t-2.842.359a4.214,4.214,0,0,0-2.777,1.5,6.188,6.188,0,0,0-1.143,3.3l-.131,3.136v38.157H41.368L10.332-105.089h-.261v30.513L10.2-71.44a5.723,5.723,0,0,0,1.078,3.2A4.259,4.259,0,0,0,13.959-66.9a28.534,28.534,0,0,0,3.071.359q1.274.065,1.731.131v1.045H-.118v-1.045q.856-.065,1.908-.131t3.717-.49q2.665-.425,3.06-4.41L8.7-74.576v-29.729l-.132-3.006a14.1,14.1,0,0,0-2.04-2.548,6.529,6.529,0,0,0-2.6-1.633,8.859,8.859,0,0,0-2.73-.457H-.775v-1.045H24.218L47.706-82.94h.261v-20.843l-.131-3.136a5.8,5.8,0,0,0-1.078-3.169,4.15,4.15,0,0,0-2.646-1.372q-1.764-.294-2.842-.359t-1.993-.131v-1.045H58.094Z" transform="translate(0.775 113.417)" fill="#fff"/>
  </g>
</svg>
