<svg xmlns="http://www.w3.org/2000/svg" width="23" height="23" viewBox="0 0 23 23">
  <path id="Icon_awesome-phone-alt" data-name="Icon awesome-phone-alt" d="M22.344,16.253,17.313,14.1a1.078,1.078,0,0,0-1.258.31l-2.228,2.722a16.651,16.651,0,0,1-7.96-7.96L8.589,6.941A1.075,1.075,0,0,0,8.9,5.683L6.743.652A1.085,1.085,0,0,0,5.507.028L.836,1.106A1.078,1.078,0,0,0,0,2.156,20.842,20.842,0,0,0,20.844,23a1.078,1.078,0,0,0,1.051-.836l1.078-4.672a1.091,1.091,0,0,0-.629-1.24Z" transform="translate(0 0)" fill="#ffb341"/>
</svg>
