<svg xmlns="http://www.w3.org/2000/svg" width="29.925" height="29.925" viewBox="0 0 29.925 29.925">
  <path id="Icon_awesome-thumbs-up" data-name="Icon awesome-thumbs-up" d="M5.672,12.217H1.309A1.309,1.309,0,0,0,0,13.526v13.09a1.309,1.309,0,0,0,1.309,1.309H5.672a1.309,1.309,0,0,0,1.309-1.309V13.526A1.309,1.309,0,0,0,5.672,12.217ZM3.491,25.743A1.309,1.309,0,1,1,4.8,24.434,1.309,1.309,0,0,1,3.491,25.743Zm17.453-21.3c0,2.313-1.416,3.611-1.815,5.157h5.548a3.259,3.259,0,0,1,3.248,3.169,3.949,3.949,0,0,1-1.06,2.683l-.006.006a4.556,4.556,0,0,1-.508,4.334,4.313,4.313,0,0,1-.893,4.077,2.9,2.9,0,0,1-.335,2.434c-1.113,1.6-3.872,1.622-6.205,1.622h-.155a15.657,15.657,0,0,1-6.521-1.73,8.584,8.584,0,0,0-2.872-.882.655.655,0,0,1-.643-.654V13a.654.654,0,0,1,.194-.465c2.161-2.135,3.09-4.4,4.86-6.169a6.605,6.605,0,0,0,1.385-3.213C15.409,2.143,15.916,0,17.017,0,18.326,0,20.944.436,20.944,4.442Z" transform="translate(1 1)" fill="none" stroke="#4767b9" stroke-width="2"/>
</svg>
