<svg xmlns="http://www.w3.org/2000/svg" width="39" height="39" viewBox="0 0 39 39">
  <g id="Twitter" transform="translate(-348 -5683)">
    <circle id="Ellipse_3" data-name="Ellipse 3" cx="19.5" cy="19.5" r="19.5" transform="translate(348 5683)" fill="#fff"/>
    <path id="Icon_awesome-twitter" data-name="Icon awesome-twitter" d="M16.279,7.053c.012.161.012.322.012.484A10.508,10.508,0,0,1,5.71,18.117,10.509,10.509,0,0,1,0,16.448a7.693,7.693,0,0,0,.9.046,7.447,7.447,0,0,0,4.617-1.589,3.725,3.725,0,0,1-3.477-2.579,4.69,4.69,0,0,0,.7.058,3.933,3.933,0,0,0,.979-.127A3.719,3.719,0,0,1,.737,8.608V8.562a3.745,3.745,0,0,0,1.681.472A3.724,3.724,0,0,1,1.266,4.06,10.57,10.57,0,0,0,8.934,7.951,4.2,4.2,0,0,1,8.842,7.1a3.722,3.722,0,0,1,6.436-2.544,7.321,7.321,0,0,0,2.36-.9A3.709,3.709,0,0,1,16,5.706a7.455,7.455,0,0,0,2.141-.576,7.994,7.994,0,0,1-1.865,1.923Z" transform="translate(358 5691.619)" fill="#021137"/>
  </g>
</svg>
