<svg xmlns="http://www.w3.org/2000/svg" width="39" height="39" viewBox="0 0 39 39">
  <g id="Whatsapp" transform="translate(-398 -5683)">
    <circle id="Ellipse_4" data-name="Ellipse 4" cx="19.5" cy="19.5" r="19.5" transform="translate(398 5683)" fill="#fff"/>
    <path id="Icon_ionic-logo-whatsapp" data-name="Icon ionic-logo-whatsapp" d="M10.576,2.25a8,8,0,0,0-8.029,7.967A7.884,7.884,0,0,0,3.7,14.33L2.25,18.6,6.7,17.192A8.042,8.042,0,0,0,18.6,10.217,8,8,0,0,0,10.576,2.25Zm3.992,10.992a2.074,2.074,0,0,1-1.42.915c-.377.02-.387.292-2.44-.6a8.377,8.377,0,0,1-3.385-3.2,3.937,3.937,0,0,1-.757-2.134,2.275,2.275,0,0,1,.781-1.669A.786.786,0,0,1,7.9,6.32c.162,0,.266,0,.386,0s.3-.025.454.388.527,1.429.575,1.533a.372.372,0,0,1,0,.357,1.394,1.394,0,0,1-.218.332c-.107.115-.225.257-.321.345s-.218.2-.106.411a6.144,6.144,0,0,0,1.087,1.451,5.6,5.6,0,0,0,1.61,1.07c.2.11.321.1.446-.034s.534-.575.679-.773.28-.16.465-.085,1.174.6,1.375.714.336.165.384.252A1.686,1.686,0,0,1,14.568,13.242Z" transform="translate(407.073 5691.75)" fill="#021137"/>
  </g>
</svg>
