<svg xmlns="http://www.w3.org/2000/svg" width="39" height="39" viewBox="0 0 39 39">
  <g id="Youtube" transform="translate(-448 -5683)">
    <circle id="Ellipse_5" data-name="Ellipse 5" cx="19.5" cy="19.5" r="19.5" transform="translate(448 5683)" fill="#fff"/>
    <path id="Icon_awesome-youtube" data-name="Icon awesome-youtube" d="M18.986,6.515a2.3,2.3,0,0,0-1.62-1.63A54.4,54.4,0,0,0,10.209,4.5a54.4,54.4,0,0,0-7.157.385,2.3,2.3,0,0,0-1.62,1.63,24.146,24.146,0,0,0-.383,4.438,24.146,24.146,0,0,0,.383,4.438A2.267,2.267,0,0,0,3.052,17a54.4,54.4,0,0,0,7.157.385A54.4,54.4,0,0,0,17.366,17a2.267,2.267,0,0,0,1.62-1.6,24.146,24.146,0,0,0,.383-4.438,24.146,24.146,0,0,0-.383-4.438ZM8.336,13.677V8.229l4.788,2.724L8.336,13.677Z" transform="translate(457.291 5691.5)" fill="#021137"/>
  </g>
</svg>
